<?xml version="1.0" encoding="UTF-8"?>
<svg version="1.1" xmlns="http://www.w3.org/2000/svg" width="1719" height="426">
<path d="M0 0 C567.27 0 1134.54 0 1719 0 C1719 173.58 1719 347.16 1719 526 C1151.73 526 584.46 526 0 526 C0 352.42 0 178.84 0 0 Z " fill="#F7FAFB" transform="translate(0,0)"/>
<path d="M0 0 C1.04251923 -0.0033284 2.08503845 -0.0066568 3.15914917 -0.01008606 C5.36276818 -0.01512803 7.56639476 -0.01749523 9.77001953 -0.01733398 C13.0590565 -0.01949309 16.34774218 -0.03760204 19.63671875 -0.05664062 C44.56498036 -0.12338327 64.55363464 0.68977073 86.07421875 13.828125 C91.99515498 17.39288608 97.38490365 19.71604182 104.1171875 21.16796875 C105.61864922 21.50580172 107.11995046 21.84434866 108.62109375 22.18359375 C109.35730957 22.34794922 110.09352539 22.51230469 110.85205078 22.68164062 C115.58619538 23.75743529 120.28741679 24.97137967 124.9921875 26.16796875 C125.77237664 38.00950609 125.77237664 38.00950609 122.9296875 42.23046875 C119.6789962 44.37454173 116.47246036 46.42437281 112.9921875 48.16796875 C112.23035156 48.5546875 111.46851563 48.94140625 110.68359375 49.33984375 C104.70394417 52.20693353 104.70394417 52.20693353 101.8515625 52.05078125 C99.235706 50.80879896 98.918404 49.4055675 97.9296875 46.73046875 C96.5978264 43.16931224 96.29675776 42.37101559 92.9921875 40.16796875 C90.36687226 40.00083306 90.36687226 40.00083306 87.9921875 40.16796875 C88.52328125 40.44769531 89.054375 40.72742188 89.6015625 41.015625 C94.93613255 44.04309085 97.62905203 46.45705803 99.9921875 52.16796875 C100.63565256 57.40761282 99.87237743 60.75167752 96.9921875 65.16796875 C93.26547595 68.94559166 90.06775431 71.0113222 84.6796875 71.41796875 C79.3068506 71.05370862 76.27116252 69.54791548 72.6171875 65.60546875 C70.9921875 63.16796875 70.9921875 63.16796875 70.9921875 61.16796875 C53.14486759 62.84141549 35.41637422 64.97649876 17.67675781 67.54174805 C16.92779739 67.64926392 16.17883698 67.75677979 15.40718079 67.86755371 C13.36796186 68.16102472 11.32934446 68.45866688 9.29077148 68.7565918 C5.9921875 69.16796875 5.9921875 69.16796875 1.9921875 69.16796875 C1.89421875 68.21535156 1.79625 67.26273437 1.6953125 66.28125 C1.54578125 65.02699219 1.39625 63.77273438 1.2421875 62.48046875 C1.10296875 61.23910156 0.96375 59.99773437 0.8203125 58.71875 C-0.08887555 54.82039179 -1.22959032 53.00267973 -4.0078125 50.16796875 C-7.28105634 48.2307428 -9.1929456 47.16796875 -13.0078125 47.16796875 C-12.1415625 47.51859375 -11.2753125 47.86921875 -10.3828125 48.23046875 C-5.48054976 51.04473069 -1.81357982 54.75066678 -0.0078125 60.16796875 C0.63433833 67.86325164 0.82220672 74.81680711 -4.0078125 81.16796875 C-8.34908169 85.39792335 -12.43217894 87.24080123 -18.4453125 87.54296875 C-22.99272297 87.42966118 -25.51387506 86.17438003 -29.0078125 83.16796875 C-33.18276409 78.52913365 -35.13085491 75.4021174 -35.0078125 69.16796875 C-35.79019287 69.17320557 -36.57257324 69.17844238 -37.37866211 69.18383789 C-40.90087083 69.20453981 -44.4230668 69.21760713 -47.9453125 69.23046875 C-49.17701172 69.23884766 -50.40871094 69.24722656 -51.67773438 69.25585938 C-52.84755859 69.25908203 -54.01738281 69.26230469 -55.22265625 69.265625 C-56.84868774 69.27348022 -56.84868774 69.27348022 -58.50756836 69.28149414 C-61.0078125 69.16796875 -61.0078125 69.16796875 -62.0078125 68.16796875 C-64.33609879 67.58186504 -64.33609879 67.58186504 -67.0078125 68.16796875 C-68.74004914 70.11145376 -70.40662853 72.11516879 -72.0078125 74.16796875 C-76.82224581 77.31101582 -82.49407458 76.86170249 -88.0078125 76.16796875 C-93.70231828 73.90230393 -96.54634056 69.58320703 -99.0078125 64.16796875 C-99.0078125 62.84796875 -99.0078125 61.52796875 -99.0078125 60.16796875 C-100.02488281 59.98621094 -100.02488281 59.98621094 -101.0625 59.80078125 C-104.04561115 59.26365597 -107.02671099 58.71613099 -110.0078125 58.16796875 C-110.94882813 58.00039063 -111.88984375 57.8328125 -112.859375 57.66015625 C-113.73335937 57.49773437 -114.60734375 57.3353125 -115.5078125 57.16796875 C-116.301875 57.02359375 -117.0959375 56.87921875 -117.9140625 56.73046875 C-120.0078125 56.16796875 -120.0078125 56.16796875 -123.0078125 54.16796875 C-124.20741919 50.56914869 -124.17667979 47.58658893 -124.1953125 43.79296875 C-124.20949219 42.48585937 -124.22367188 41.17875 -124.23828125 39.83203125 C-124.0190882 36.34723325 -123.80925986 34.14333226 -122.0078125 31.16796875 C-118.35196162 29.37093832 -114.95186837 28.76405132 -110.92333984 28.33007812 C-109.71793549 28.19653931 -108.51253113 28.06300049 -107.27059937 27.92541504 C-105.97473907 27.78889526 -104.67887878 27.65237549 -103.34375 27.51171875 C-101.98711219 27.36316096 -100.63055598 27.21385628 -99.27407837 27.06384277 C-95.70496106 26.67063535 -92.13504462 26.28528505 -88.56481934 25.90228271 C-82.8730371 25.29107287 -77.18224766 24.67093289 -71.49205399 24.04512024 C-69.52133035 23.8299594 -67.55002292 23.62016706 -65.57870483 23.41052246 C-48.82696493 21.87656611 -48.82696493 21.87656611 -35.0078125 13.16796875 C-34.06292969 12.30558594 -33.11804688 11.44320312 -32.14453125 10.5546875 C-30.24691246 8.81792646 -28.36047921 7.06882208 -26.48828125 5.3046875 C-19.07512853 -1.08113067 -9.28108346 0.01059211 0 0 Z " fill="#1974BC" transform="translate(283.0078125,207.83203125)"/>
<path d="M0 0 C0.54914063 0.73476562 1.09828125 1.46953125 1.6640625 2.2265625 C4.03856777 5.04579117 6.46793663 7.1193794 9.375 9.375 C16.915346 15.45559944 22.03259435 20.04913483 23.25 30.0546875 C23.71644954 38.24670755 20.97792602 45.94118697 15.9375 52.375 C11.70791347 56.78495269 6.72032798 59.04486375 1 61 C0.24726807 61.26401611 -0.50546387 61.52803223 -1.28100586 61.80004883 C-9.25508978 64.31829716 -16.76061781 64.28371657 -25.0625 64.0625 C-27.65736232 64.0028042 -30.25243765 63.95156221 -32.84765625 63.91015625 C-34.5493396 63.86580444 -34.5493396 63.86580444 -36.28540039 63.82055664 C-39.14976112 63.71047659 -39.14976112 63.71047659 -41 66 C-41.24253813 68.21072977 -41.24253813 68.21072977 -41.125 70.625 C-41.09792969 71.85089844 -41.09792969 71.85089844 -41.0703125 73.1015625 C-41.04710937 73.72804688 -41.02390625 74.35453125 -41 75 C-37.06849114 76.27553346 -33.09516878 76.17086701 -29.0078125 76.2109375 C-27.39842807 76.23904875 -25.78905324 76.26771338 -24.1796875 76.296875 C-21.66797607 76.33774748 -19.15643528 76.37466585 -16.64453125 76.40136719 C10.5111212 76.71436954 10.5111212 76.71436954 22 84 C22.886875 84.556875 23.77375 85.11375 24.6875 85.6875 C32.09967153 93.09967153 33.29769659 101.32607216 33.31689453 111.35913086 C33.12386248 122.57048022 28.92838121 130.99782152 21.1171875 138.90625 C6.82939844 152.1294587 -13.76125066 153.86651577 -32.43164062 153.17919922 C-43.90329667 152.3788004 -54.2323595 148.91942051 -62.375 140.5625 C-66.72803981 133.69809107 -68.01988874 128.12394137 -67 120 C-65.55425079 114.78984717 -62.96668847 111.80112478 -58.8125 108.4375 C-55.89716703 106.02632235 -55.03215306 105.07968367 -53.5625 101.4375 C-54.05375975 97.57760194 -54.41546788 97.2381174 -57.25 94.875 C-57.89582031 94.38257813 -58.54164062 93.89015625 -59.20703125 93.3828125 C-62.40434949 90.91690693 -63.7731286 88.68735605 -64.3125 84.67578125 C-64.59017142 78.87071319 -63.8296652 75.57432232 -60 71 C-59.34 70.13375 -58.68 69.2675 -58 68.375 C-56 66 -56 66 -53.6875 64.0625 C-51.70857951 62.06448487 -51.70857951 62.06448487 -51.875 59.0625 C-53.12383086 55.66290488 -54.56242327 54.65932808 -57.3671875 52.51171875 C-62.72815638 47.54833369 -64.34747155 41.08468455 -64.625 34 C-64.26487041 25.27159603 -61.5791873 19.08805344 -55.1875 13.125 C-42.006128 2.57493766 -27.5068188 2.82773295 -11.3828125 3.21484375 C-10.2071875 3.22902344 -9.0315625 3.24320313 -7.8203125 3.2578125 C-6.21567139 3.29092529 -6.21567139 3.29092529 -4.57861328 3.32470703 C-3.7276709 3.21755371 -2.87672852 3.11040039 -2 3 C-1.34 2.01 -0.68 1.02 0 0 Z " fill="#151515" transform="translate(1441,192)"/>
<path d="M0 0 C1.02029297 -0.00773438 2.04058594 -0.01546875 3.09179688 -0.0234375 C16.33922275 0.01037852 28.50941927 2.70556143 38.5 12 C48.68887776 23.18239904 50.87877537 38.05115298 50.41015625 52.67578125 C49.65136282 65.50455762 45.89847308 77.80366754 36.5625 87 C22.99018944 98.05697887 5.70669955 98.3415692 -10.9375 97.25 C-21.81512743 95.7500581 -32.48812965 90.14028758 -39.40625 81.57421875 C-48.38648359 67.94350705 -49.71580074 50.60085432 -47.4375 34.77734375 C-44.67415724 22.60921513 -39.1442431 12.53220513 -28.44921875 5.6484375 C-19.23288765 0.74643869 -10.31190519 -0.07787468 0 0 Z " fill="#151515" transform="translate(1310.9375,195.75)"/>
<path d="M0 0 C5.14710077 4.78291912 7.90441689 11.1919855 8.28321838 18.16070557 C8.30653481 19.85281158 8.30653481 19.85281158 8.33032227 21.57910156 C8.3602401 23.50064056 8.3602401 23.50064056 8.39076233 25.46099854 C8.40774409 26.85420614 8.42462299 28.24741499 8.44140625 29.640625 C8.46198794 31.06980983 8.48298473 32.49898873 8.50437927 33.92816162 C8.55947449 37.6829345 8.60893888 41.43776118 8.65722656 45.19262695 C8.70753345 49.02690395 8.76317148 52.8611032 8.81835938 56.6953125 C8.92578736 64.21347575 9.02726616 71.73170382 9.125 79.25 C10.259375 79.394375 11.39375 79.53875 12.5625 79.6875 C16.125 80.25 16.125 80.25 17.125 81.25 C17.16563832 82.91617115 17.167721 84.58388095 17.125 86.25 C12.74375169 88.44062416 6.87168656 87.51832802 2.00415039 87.54516602 C-0.16910239 87.56235449 -2.34082346 87.60623807 -4.51367188 87.65039062 C-5.9010305 87.66052026 -7.28840204 87.66903552 -8.67578125 87.67578125 C-10.56550659 87.69765503 -10.56550659 87.69765503 -12.4934082 87.7199707 C-16.4538946 87.16954573 -18.06819813 86.03798822 -20.875 83.25 C-22.22939668 80.54120665 -21.94001451 78.24066732 -21.875 75.25 C-22.90947266 76.04664063 -22.90947266 76.04664063 -23.96484375 76.859375 C-31.79554953 82.74583147 -38.88810043 87.56124831 -48.875 88.25 C-49.70902344 88.31316406 -50.54304687 88.37632812 -51.40234375 88.44140625 C-59.92220339 88.81183493 -66.04099359 86.59300392 -73.25 82.1875 C-79.01652318 75.73448597 -80.65126104 67.68115871 -80.3203125 59.17578125 C-79.20245106 51.83123546 -75.62943217 45.9731994 -69.7421875 41.48828125 C-58.42618515 33.98373576 -45.96038819 32.87373902 -32.70874023 31.89599609 C-31.74137939 31.82461426 -30.77401855 31.75323242 -29.77734375 31.6796875 C-28.90585693 31.62022949 -28.03437012 31.56077148 -27.13647461 31.49951172 C-24.71087291 31.3121144 -24.71087291 31.3121144 -21.875 30.25 C-21.78702719 27.06267746 -21.73428659 23.87567212 -21.6875 20.6875 C-21.66236328 19.79224609 -21.63722656 18.89699219 -21.61132812 17.97460938 C-21.53944296 11.43305943 -22.03802841 6.39575762 -26.59765625 1.33984375 C-29.88522527 -0.23345258 -32.68427236 -0.18390414 -36.3125 -0.1875 C-37.61058594 -0.20683594 -38.90867187 -0.22617188 -40.24609375 -0.24609375 C-44.38899937 0.32026687 -46.06188557 1.19040317 -48.875 4.25 C-49.72664561 7.61844905 -49.44200442 11.11599115 -47.875 14.25 C-47.47082448 17.21395382 -47.31117829 19.33904926 -48.921875 21.94140625 C-51.46545392 25.04606875 -53.20080677 27.03066125 -57.23046875 27.55859375 C-62.38342952 27.79314231 -65.93066507 27.85540294 -70 24.4375 C-73.33695436 21.20432652 -74.07600972 18.12747909 -74.3125 13.5625 C-74.23337114 8.62054297 -73.04488972 5.80419745 -69.84765625 2.0703125 C-53.42594561 -13.08318682 -17.65077989 -13.8201851 0 0 Z " fill="#151515" transform="translate(1010.875,203.75)"/>
<path d="M0 0 C7.68283478 8.22891862 7.55829972 17.63521716 7.60546875 28.33203125 C7.62233873 29.77792869 7.64049206 31.22381168 7.65986633 32.66967773 C7.7071213 36.45069865 7.73708821 40.23166093 7.76330566 44.01287842 C7.79323584 47.8810992 7.83972294 51.7491184 7.88476562 55.6171875 C7.97051939 63.1887015 8.03798771 70.76023062 8.09375 78.33203125 C10.73375 78.66203125 13.37375 78.99203125 16.09375 79.33203125 C16.71875 81.70703125 16.71875 81.70703125 17.09375 84.33203125 C13.33029683 88.09548442 6.68332515 86.7446976 1.5456543 86.75756836 C-0.70050097 86.76943484 -2.94388068 86.81857023 -5.18945312 86.86914062 C-6.62238245 86.87860873 -8.05532863 86.88584191 -9.48828125 86.890625 C-11.44084839 86.91080688 -11.44084839 86.91080688 -13.43286133 86.93139648 C-17.7875028 86.17996296 -19.25979894 84.81192112 -21.90625 81.33203125 C-22.21875 77.51953125 -22.21875 77.51953125 -21.90625 74.33203125 C-25.31385455 76.31025124 -28.44955262 78.46218992 -31.59375 80.83203125 C-40.65702923 87.14562636 -49.95199852 88.61224146 -60.90625 87.33203125 C-68.1804499 85.36875238 -73.93514876 82.86513329 -77.90625 76.33203125 C-81.68801758 69.43495513 -82.32549896 61.32992408 -80.1796875 53.7734375 C-76.07881848 43.88800933 -69.55581422 39.07921311 -59.88720703 35.06005859 C-50.09176276 31.46010606 -39.46584713 30.97711191 -29.13671875 30.640625 C-25.7580727 30.5749039 -25.7580727 30.5749039 -22.90625 28.33203125 C-22.44237761 26.3240172 -22.44237761 26.3240172 -22.5078125 24.0078125 C-22.50394531 23.14349609 -22.50007812 22.27917969 -22.49609375 21.38867188 C-22.50769531 20.48310547 -22.51929688 19.57753906 -22.53125 18.64453125 C-22.51964844 17.75830078 -22.50804687 16.87207031 -22.49609375 15.95898438 C-22.52099312 10.3524771 -23.07461504 6.22012508 -25.90625 1.33203125 C-29.22497764 -1.39218509 -33.19271238 -1.00182863 -37.34375 -1.04296875 C-38.64183594 -1.07132813 -39.93992187 -1.0996875 -41.27734375 -1.12890625 C-45.42869254 -0.60160899 -47.07557653 0.29107918 -49.90625 3.33203125 C-50.26252284 6.776002 -50.47055248 9.2034263 -48.90625 12.33203125 C-48.53284101 17.27970039 -48.68387757 20.44296108 -51.90625 24.33203125 C-55.94582877 26.75577851 -60.30803574 26.9011619 -64.90625 26.33203125 C-68.71873738 25.01232408 -70.57482107 23.69834744 -73.28125 20.70703125 C-75.38384999 16.34009281 -75.80268334 13.08878113 -74.90625 8.33203125 C-71.9592966 0.20199398 -65.23211449 -3.10032033 -57.83203125 -6.66796875 C-41.04785015 -13.74932711 -13.8547687 -12.12292262 0 0 Z " fill="#151515" transform="translate(686.90625,204.66796875)"/>
<path d="M0 0 C6.41190462 7.9771233 6.41407189 16.46119064 6.3984375 26.33203125 C6.41090177 27.77410565 6.42524127 29.21616494 6.44136047 30.65820312 C6.47914631 34.42575279 6.49453606 38.19304025 6.50415039 41.96075439 C6.52400783 48.01839577 6.58063019 54.07584012 6.63291359 60.13327026 C6.64827958 62.24780011 6.65545063 64.36223078 6.66105652 66.47680664 C6.6716082 68.38514282 6.6716082 68.38514282 6.68237305 70.33203125 C6.68585251 71.45738281 6.68933197 72.58273437 6.69291687 73.7421875 C6.53819558 76.20666406 6.53819558 76.20666406 7.82421875 77.26953125 C10.15239839 77.63713856 12.48605725 77.97194706 14.82421875 78.26953125 C15.44921875 80.64453125 15.44921875 80.64453125 15.82421875 83.26953125 C12.06076558 87.03298442 5.4137939 85.6821976 0.27612305 85.69506836 C-1.97003222 85.70693484 -4.21341193 85.75607023 -6.45898438 85.80664062 C-7.8919137 85.81610873 -9.32485988 85.82334191 -10.7578125 85.828125 C-12.71037964 85.84830688 -12.71037964 85.84830688 -14.70239258 85.86889648 C-19.05703405 85.11746296 -20.52933019 83.74942112 -23.17578125 80.26953125 C-23.48828125 76.45703125 -23.48828125 76.45703125 -23.17578125 73.26953125 C-26.35129397 75.05575716 -29.23483691 77.04854348 -32.11328125 79.26953125 C-41.4478693 86.32739051 -50.68928819 87.14336589 -62.17578125 86.26953125 C-69.83269291 84.64282607 -74.90062184 80.79157842 -79.17578125 74.26953125 C-82.58825581 67.62780224 -82.39775812 57.74791134 -80.453125 50.62109375 C-76.59069692 42.4583915 -69.27221235 37.11213451 -60.9453125 34.1015625 C-51.48015936 31.13902304 -43.08253628 30.03700973 -33.21679688 29.75195312 C-32.34345703 29.71779297 -31.47011719 29.68363281 -30.5703125 29.6484375 C-29.37692261 29.61085327 -29.37692261 29.61085327 -28.15942383 29.57250977 C-25.94626673 29.43484076 -25.94626673 29.43484076 -24.17578125 27.26953125 C-23.72289024 23.87345254 -23.85176445 20.44232562 -23.86328125 17.01953125 C-23.84716797 16.07722656 -23.83105469 15.13492188 -23.81445312 14.1640625 C-23.81071603 8.83497106 -23.99709949 4.77565348 -27.17578125 0.26953125 C-30.56403572 -2.38114401 -34.43999593 -2.09765572 -38.61328125 -2.16796875 C-39.91136719 -2.20792969 -41.20945312 -2.24789062 -42.546875 -2.2890625 C-47.01900405 -1.60067234 -48.48176244 -0.30160996 -51.17578125 3.26953125 C-51.06105234 6.58511621 -51.06105234 6.58511621 -50.17578125 10.26953125 C-49.82530264 13.65923484 -49.64075357 16.89474129 -50.17578125 20.26953125 C-53.09416584 23.50341687 -55.86204782 25.00069746 -60.2265625 25.5078125 C-65.72353364 25.6881967 -68.93034005 25.11064472 -73.17578125 21.26953125 C-76.09381418 16.89248185 -76.81626434 13.48489354 -76.17578125 8.26953125 C-72.11531244 -0.98833765 -65.44977027 -4.959725 -56.3359375 -8.75 C-38.34880827 -14.33067916 -14.57199358 -12.06695486 0 0 Z " fill="#151515" transform="translate(1186.17578125,205.73046875)"/>
<path d="M0 0 C1.41249023 -0.01836914 1.41249023 -0.01836914 2.85351562 -0.03710938 C15.77986223 -0.06409548 26.39647342 4.06143888 35.89453125 12.9375 C42.61668781 20.34086937 46.44616259 28.54088261 46.2578125 38.5234375 C45.71331828 43.05203578 43.71066473 45.79429914 40.1875 48.5625 C35.84710269 49.76816592 31.94509294 50.22206418 27.8984375 48.13671875 C23.31279621 44.93809242 23.31279621 44.93809242 21.9375 42.1875 C21.2227547 37.18428289 22.03371543 34.69914701 24.9375 30.75 C27.06194061 27.78084134 28.437914 25.61889349 28.6875 21.9375 C27.92485823 18.12429115 27.22603174 16.5568419 24.015625 14.3515625 C13.88909227 8.67918138 4.92011441 6.54450306 -6.66796875 8.6640625 C-15.87678236 11.2951521 -21.71421877 17.0344423 -26.52734375 25.13671875 C-33.26536256 38.52703095 -34.409828 53.49669756 -34.3125 68.25 C-34.32023438 69.42626953 -34.32796875 70.60253906 -34.3359375 71.81445312 C-34.2985313 88.73140753 -31.21889839 104.5265721 -19.25390625 117.0859375 C-12.68572023 123.3501632 -5.83481638 126.33406865 3.25 126.75 C13.92362014 126.34816959 22.96291522 122.40952618 30.640625 115.0078125 C34.32345176 110.4857021 36.8965823 105.47644476 39.44140625 100.25 C40.9375 97.1875 40.9375 97.1875 41.9375 96.1875 C44.4375 96.0625 44.4375 96.0625 46.9375 96.1875 C47.9375 97.1875 47.9375 97.1875 48.3125 100.125 C48.06473958 109.50177904 41.18151296 117.19587727 34.88671875 123.546875 C30.56334717 127.41786731 26.45512129 129.49661606 20.9375 131.1875 C19.9371875 131.50203125 18.936875 131.8165625 17.90625 132.140625 C-1.22937366 137.15233596 -21.81875157 135.28681032 -39.28125 125.9453125 C-52.92495589 117.32218378 -62.81783783 103.63636306 -66.9375 88.0625 C-70.92191482 66.58960578 -69.36776962 43.66972314 -57.0625 25.1875 C-47.62543991 12.69830524 -33.79784069 3.29649013 -18.13061523 0.89086914 C-12.08730565 0.13671685 -6.08469655 0.00418192 0 0 Z " fill="#151515" transform="translate(873.0625,157.8125)"/>
<path d="M0 0 C0.97098633 -0.00555908 1.94197266 -0.01111816 2.94238281 -0.0168457 C16.44668676 0.11922074 26.94292164 4.55915498 36.796875 13.83984375 C43.00672388 20.61714433 47.6115277 28.77729009 47.37890625 38.09765625 C46.73288904 42.61977669 44.19926182 45.27604069 40.9375 48.25 C36.53528174 49.87690675 32.5611798 49.55351512 28.0625 48.3125 C25 45.8125 25 45.8125 23.0625 43.3125 C22.7325 42.9825 22.4025 42.6525 22.0625 42.3125 C21.56592485 38.83647397 21.39815084 36.32891443 23.3671875 33.31640625 C23.90601563 32.65511719 24.44484375 31.99382812 25 31.3125 C27.95383318 27.66943907 29.33238341 25.17040147 29.0625 20.3125 C24.76440146 13.24143466 17.7930817 10.53075805 10.0625 8.3125 C-0.31957043 7.37531428 -9.90241943 8.2053761 -18.31640625 14.75390625 C-30.07795936 26.06200189 -33.74001155 43.85395658 -34.22265625 59.484375 C-34.26377543 62.13598891 -34.29507987 64.7858228 -34.3125 67.4375 C-34.32643799 68.69997559 -34.34037598 69.96245117 -34.35473633 71.26318359 C-34.27322055 87.50070229 -30.57435225 105.22422698 -19.01953125 117.3203125 C-11.41645171 124.34985219 -3.33647448 126.7574903 6.953125 126.66015625 C17.06550174 125.52950106 26.74383882 120.66918464 33.125 112.75 C36.76569322 107.63732839 39.39990951 101.97758616 42.0625 96.3125 C43.72861905 96.269779 45.39632885 96.27186168 47.0625 96.3125 C48.0625 97.3125 48.0625 97.3125 48.4375 100.25 C48.24243487 108.93926487 42.15164433 116.0643488 36.43359375 122.0546875 C24.10751976 133.79187162 9.9450301 134.90462398 -6.32421875 134.6484375 C-23.38847158 133.96866994 -37.9147699 128.69780877 -50.4765625 117.0078125 C-64.88830545 101.22352261 -68.93504242 82.22270039 -68.06298828 61.44677734 C-67.06773575 44.51973922 -61.3722441 28.17443439 -48.9375 16.3125 C-34.26708004 4.02230418 -18.81009861 0.09120954 0 0 Z " fill="#151515" transform="translate(547.9375,157.6875)"/>
<path d="M0 0 C0.79289932 -0.0033284 1.58579865 -0.0066568 2.40272522 -0.01008606 C4.08317483 -0.01515851 5.76363454 -0.01749429 7.4440918 -0.01733398 C10.02083884 -0.01951911 12.59715701 -0.03766734 15.17382812 -0.05664062 C16.80338395 -0.0595747 18.43294181 -0.0615594 20.0625 -0.0625 C20.83649643 -0.06968552 21.61049286 -0.07687103 22.40794373 -0.08427429 C27.86883372 -0.06085378 27.86883372 -0.06085378 30.09765625 2.16796875 C30.35936928 4.31938362 30.35936928 4.31938362 30.37612915 7.04006958 C30.38729263 8.0693457 30.39845612 9.09862183 30.40995789 10.15908813 C30.41211807 11.29268768 30.41427826 12.42628723 30.41650391 13.59423828 C30.42654953 14.78446594 30.43659515 15.9746936 30.44694519 17.20098877 C30.47258805 20.46936932 30.48941223 23.73765485 30.50237322 27.0061059 C30.51797757 30.42012666 30.54477631 33.83405877 30.57040405 37.24801636 C30.61723976 43.71487211 30.65396058 50.18174446 30.68707693 56.64868343 C30.72526456 64.01019217 30.77468345 71.37161198 30.82506108 78.73304582 C30.92845214 93.87795444 31.01768911 109.02291698 31.09765625 124.16796875 C33.73765625 124.49796875 36.37765625 124.82796875 39.09765625 125.16796875 C39.72265625 127.54296875 39.72265625 127.54296875 40.09765625 130.16796875 C38.09765625 132.16796875 38.09765625 132.16796875 36.16223145 132.41520691 C35.37328491 132.41378189 34.58433838 132.41235687 33.77148438 132.41088867 C32.87715698 132.4139653 31.98282959 132.41704193 31.06140137 132.42021179 C30.09367798 132.41302628 29.12595459 132.40584076 28.12890625 132.3984375 C27.13765747 132.39797928 26.14640869 132.39752106 25.12512207 132.39704895 C23.02692469 132.39402457 20.9287296 132.38613276 18.83056641 132.3737793 C15.61092208 132.35554388 12.39156553 132.35326943 9.171875 132.35351562 C7.13671625 132.34859973 5.10155946 132.34277111 3.06640625 132.3359375 C1.61482117 132.33426826 1.61482117 132.33426826 0.13391113 132.33256531 C-0.76041626 132.32618546 -1.65474365 132.3198056 -2.57617188 132.31323242 C-3.36511841 132.30942062 -4.15406494 132.30560883 -4.96691895 132.30168152 C-6.90234375 132.16796875 -6.90234375 132.16796875 -8.90234375 131.16796875 C-8.94506475 129.5018497 -8.94298207 127.8341399 -8.90234375 126.16796875 C-6.96963793 124.23526293 -3.51592987 124.5413382 -0.90234375 124.16796875 C0.30724031 123.17839066 0.30724031 123.17839066 0.22070408 121.26454067 C0.21978229 120.42478726 0.21886049 119.58503386 0.21791077 118.71983337 C0.21928543 117.75924515 0.2206601 116.79865692 0.22207642 115.80895996 C0.21848114 114.74657104 0.21488586 113.68418213 0.21118164 112.58959961 C0.21132767 111.47754654 0.21147369 110.36549347 0.21162415 109.21974182 C0.21092446 105.52407924 0.20312945 101.82846634 0.1953125 98.1328125 C0.19344852 95.57833382 0.19202452 93.02385478 0.19102478 90.46937561 C0.18758969 84.42035165 0.17969889 78.3713492 0.16967529 72.32233387 C0.15851308 65.43731721 0.15300343 58.55229971 0.14797986 51.66727626 C0.13751625 37.50083045 0.11991748 23.33440058 0.09765625 9.16796875 C-0.46751709 8.98186035 -1.03269043 8.79575195 -1.61499023 8.60400391 C-2.34790283 8.34925293 -3.08081543 8.09450195 -3.8359375 7.83203125 C-4.93119751 7.46005615 -4.93119751 7.46005615 -6.04858398 7.08056641 C-7.90234375 6.16796875 -7.90234375 6.16796875 -8.96484375 3.54296875 C-8.82901028 -1.61870295 -4.03092549 0.0057804 0 0 Z " fill="#151515" transform="translate(1214.90234375,158.83203125)"/>
<path d="M0 0 C5.76140606 3.28365852 9.39519361 6.56388556 11.8125 12.80859375 C12.52297694 18.67002852 12.40399357 22.8588534 9.0625 27.87109375 C4.9586116 31.58413563 1.62762303 32.50571064 -3.75 32.26953125 C-7.14136176 31.65181893 -9.34748025 30.07261054 -11.9375 27.87109375 C-13.47016582 24.80576211 -13.04026471 21.60355103 -13 18.24609375 C-12.99548828 17.5396875 -12.99097656 16.83328125 -12.98632812 16.10546875 C-12.97453875 14.360641 -12.95660324 12.61585675 -12.9375 10.87109375 C-18.26787831 10.62146206 -18.26787831 10.62146206 -23.0625 12.74609375 C-32.7039994 22.02860116 -35.03512872 38.28215394 -35.3414917 51.06549072 C-35.37069998 54.86821286 -35.35211504 58.66783673 -35.29418945 62.47021484 C-35.24920896 65.42302266 -35.23259713 68.37501329 -35.22070312 71.328125 C-35.20731167 73.2070432 -35.19239788 75.08595131 -35.17578125 76.96484375 C-35.16839432 77.84692505 -35.16100739 78.72900635 -35.15339661 79.63781738 C-35.47614385 83.57092787 -35.47614385 83.57092787 -33.9375 86.87109375 C-31.41153741 87.10762898 -28.90642793 87.29283067 -26.375 87.43359375 C-25.66408203 87.47677734 -24.95316406 87.51996094 -24.22070312 87.56445312 C-22.45988088 87.67081152 -20.6987168 87.77148221 -18.9375 87.87109375 C-18.3125 90.24609375 -18.3125 90.24609375 -17.9375 92.87109375 C-19.9375 94.87109375 -19.9375 94.87109375 -22.145401 95.11833191 C-23.51987648 95.11619438 -23.51987648 95.11619438 -24.92211914 95.11401367 C-25.95981949 95.1170903 -26.99751984 95.12016693 -28.06666565 95.12333679 C-29.752631 95.11255852 -29.752631 95.11255852 -31.47265625 95.1015625 C-32.62164902 95.10110428 -33.77064178 95.10064606 -34.95445251 95.10017395 C-37.38639354 95.09714901 -39.81833259 95.08925554 -42.25024414 95.0769043 C-45.9878622 95.05865302 -49.72523267 95.05639452 -53.46289062 95.05664062 C-55.82031466 95.05172547 -58.177737 95.04589716 -60.53515625 95.0390625 C-61.66115738 95.03794968 -62.78715851 95.03683685 -63.94728088 95.03569031 C-64.98182907 95.02931046 -66.01637726 95.0229306 -67.08227539 95.01635742 C-68.45555748 95.01063972 -68.45555748 95.01063972 -69.85658264 95.00480652 C-71.9375 94.87109375 -71.9375 94.87109375 -72.9375 93.87109375 C-72.97813832 92.2049226 -72.980221 90.5372128 -72.9375 88.87109375 C-69.4725 87.88109375 -69.4725 87.88109375 -65.9375 86.87109375 C-65.9375 61.13109375 -65.9375 35.39109375 -65.9375 8.87109375 C-68.2475 8.54109375 -70.5575 8.21109375 -72.9375 7.87109375 C-73.9375 6.87109375 -73.9375 6.87109375 -74.0625 4.37109375 C-73.9375 1.87109375 -73.9375 1.87109375 -72.9375 0.87109375 C-70.28293807 0.77013811 -67.65494824 0.73138377 -65 0.73828125 C-64.204729 0.73732452 -63.40945801 0.7363678 -62.59008789 0.73538208 C-60.9054354 0.73470032 -59.22078029 0.73655432 -57.53613281 0.74072266 C-54.94850803 0.746071 -52.36105684 0.74077756 -49.7734375 0.734375 C-48.14062461 0.73503578 -46.50781184 0.73631695 -44.875 0.73828125 C-44.09584229 0.73625702 -43.31668457 0.73423279 -42.51391602 0.73214722 C-37.05245105 0.7561427 -37.05245105 0.7561427 -35.9375 1.87109375 C-35.86436433 4.40158777 -35.84502473 6.90414212 -35.875 9.43359375 C-35.87951172 10.14451172 -35.88402344 10.85542969 -35.88867188 11.58789062 C-35.90049136 13.34899388 -35.91842737 15.11005411 -35.9375 16.87109375 C-33.71093659 14.76206154 -31.98617127 12.58076806 -30.25 10.05859375 C-22.95354081 0.17189155 -12.05498278 -4.63283248 0 0 Z " fill="#161717" transform="translate(779.9375,196.12890625)"/>
<path d="M0 0 C3.38031589 1.18767855 3.93216817 1.89825225 6 5 C6.22705078 6.90112305 6.22705078 6.90112305 6.1953125 9.01171875 C6.18886719 9.76904297 6.18242188 10.52636719 6.17578125 11.30664062 C6.15902344 12.09232422 6.14226562 12.87800781 6.125 13.6875 C6.11597656 14.48478516 6.10695313 15.28207031 6.09765625 16.10351562 C6.07411585 18.069139 6.03824547 20.03460775 6 22 C6.89307861 21.98428955 6.89307861 21.98428955 7.80419922 21.96826172 C10.49442343 21.92676051 13.18458037 21.90069296 15.875 21.875 C16.81214844 21.85824219 17.74929688 21.84148437 18.71484375 21.82421875 C20.05869141 21.81455078 20.05869141 21.81455078 21.4296875 21.8046875 C22.25710449 21.79421387 23.08452148 21.78374023 23.93701172 21.77294922 C26 22 26 22 28 24 C27.505 26.475 27.505 26.475 27 29 C20.07 29 13.14 29 6 29 C6.06293929 38.5622512 6.13836702 48.12418079 6.23571491 57.68614483 C6.28042084 62.12627532 6.31967643 66.566314 6.34643555 71.0065918 C6.37246639 75.29263361 6.41286708 79.57832221 6.46318626 83.86414528 C6.47985649 85.49833593 6.49136982 87.13258768 6.49761391 88.76685143 C6.50725352 91.05807804 6.5353096 93.3484007 6.56762695 95.6394043 C6.58428154 97.59465279 6.58428154 97.59465279 6.60127258 99.58940125 C7.026051 103.22283272 7.75778823 105.13546463 10 108 C12.80857748 109.26010343 12.80857748 109.26010343 16 109 C19.10888241 107.26620019 21.48927253 105.51072747 24 103 C26.625 103.375 26.625 103.375 29 104 C28.81598844 107.95624848 28.2794217 109.68381229 25.625 112.6875 C17.85240966 118.41078505 7.27934721 119.01475243 -2 118 C-9.72363127 116.16526767 -15.82543394 113.26077256 -20.63496399 106.80561829 C-22.32945069 103.32286558 -22.40033654 100.3336859 -22.34057617 96.54760742 C-22.34101425 95.8153595 -22.34145233 95.08311157 -22.34190369 94.32867432 C-22.33982217 91.92066305 -22.3165221 89.51335761 -22.29296875 87.10546875 C-22.28737051 85.43110026 -22.28310149 83.75672685 -22.28010559 82.08235168 C-22.26867474 77.6846042 -22.23922285 73.28715597 -22.20599365 68.88952637 C-22.17525473 64.3983973 -22.1615921 59.90721967 -22.14648438 55.41601562 C-22.11435133 46.61054006 -22.06317645 37.8053073 -22 29 C-22.84304688 29.02320313 -23.68609375 29.04640625 -24.5546875 29.0703125 C-26.19824219 29.09738281 -26.19824219 29.09738281 -27.875 29.125 C-29.51082031 29.15980469 -29.51082031 29.15980469 -31.1796875 29.1953125 C-34 29 -34 29 -36 27 C-35.625 24.875 -35.625 24.875 -35 23 C-34.030625 22.731875 -33.06125 22.46375 -32.0625 22.1875 C-31.42828125 22.001875 -30.7940625 21.81625 -30.140625 21.625 C-28.65585587 21.19149077 -27.16574182 20.77603807 -25.671875 20.375 C-20.59663518 18.89612217 -17.80702754 17.71179622 -15 13 C-13.70747025 10.45163692 -12.44780562 7.89723311 -11.24609375 5.3046875 C-8.34970452 -0.05227064 -6.06716982 -0.53220788 0 0 Z " fill="#141414" transform="translate(1060,175)"/>
<path d="M0 0 C5.18269765 3.03138919 7.49269191 6.19019178 9.17529297 11.82885742 C11.12028999 20.43782966 11.78306657 28.5247882 11.70361328 37.32373047 C11.68750741 39.43652851 11.70357847 41.54741492 11.72265625 43.66015625 C11.74208814 55.38883673 11.33970922 68.96853934 3.3125 78.25 C-0.59695119 81.54859944 -4.98856653 81.40589459 -9.89453125 81.328125 C-13.65257009 80.80252516 -15.60150922 79.65339961 -18.25390625 76.98828125 C-23.53997074 69.42647238 -24.84429453 60.22805449 -24.92578125 51.25390625 C-24.933853 50.402556 -24.94192474 49.55120575 -24.95024109 48.67405701 C-24.96406056 46.86939514 -24.97479226 45.06470737 -24.98266602 43.26000977 C-24.99412131 41.43603722 -25.0144693 39.61209645 -25.04418945 37.78833008 C-25.45324051 12.65797015 -25.45324051 12.65797015 -18.1875 3.25 C-12.55360524 -1.96135266 -7.21950821 -2.08019728 0 0 Z " fill="#F4F7F8" transform="translate(1318.6875,204.0625)"/>
<path d="M0 0 C1.28519531 -0.01998047 2.57039063 -0.03996094 3.89453125 -0.06054688 C11.24389936 -0.05677797 17.4755784 0.32748263 23.75 4.4375 C28.78282966 9.5961504 29.16995342 14.27785693 29.0859375 21.234375 C28.24664111 29.2369685 24.04110188 34.81387854 18.10546875 39.96484375 C11.83230955 43.88686866 5.99977906 44.90505257 -1.3125 44.75 C-2.4581543 44.75483398 -2.4581543 44.75483398 -3.62695312 44.75976562 C-9.55559408 44.70397858 -14.64641773 43.9252613 -19.875 40.9375 C-24.5330619 36.03427695 -27.51101119 30.26406802 -27.8125 23.4375 C-27.4048044 16.04073703 -24.51854114 8.70604114 -19.25 3.4375 C-13.27108541 -0.87323172 -7.10791939 -0.03874485 0 0 Z " fill="#F4F7F8" transform="translate(1421.25,292.5625)"/>
<path d="M0 0 C4.10975361 2.09681307 5.63156065 4.65448917 7.37817383 8.87084961 C8.58852119 13.01511318 8.38822242 17.21713965 8.3125 21.5 C8.31733398 22.86705078 8.31733398 22.86705078 8.32226562 24.26171875 C8.2652629 31.44406248 7.53534027 38.1208552 3 44 C-1.39863702 46.79913265 -6.96426273 46.77983411 -12 46 C-16.1876241 43.23795006 -18.10955733 39.70250509 -19.49609375 34.98828125 C-21.40447288 23.67114923 -21.30155459 11.79923145 -15.0625 1.9375 C-10.24917977 -1.10766178 -5.53283038 -0.81342583 0 0 Z " fill="#F2F5F6" transform="translate(1426,203)"/>
<path d="M0 0 C1.12334999 0.00068733 1.12334999 0.00068733 2.26939392 0.00138855 C3.85726501 0.00440977 5.44513317 0.01229221 7.03295898 0.0246582 C9.43158818 0.04271836 11.82982604 0.04516904 14.22851562 0.04492188 C22.01865886 0.06350102 29.66100812 0.25598038 37.40234375 1.23046875 C38.40234375 4.23046875 38.40234375 4.23046875 37.68969727 6.1315918 C37.11626587 7.17633667 37.11626587 7.17633667 36.53125 8.2421875 C36.12197266 8.99951172 35.71269531 9.75683594 35.29101562 10.53710938 C34.85337891 11.32279297 34.41574219 12.10847656 33.96484375 12.91796875 C33.53107422 13.71525391 33.09730469 14.51253906 32.65039062 15.33398438 C31.57658789 17.3045894 30.4920071 19.26861415 29.40234375 21.23046875 C22.30340879 21.38216826 15.41333444 20.94446219 8.36328125 20.13671875 C7.35641266 20.02573853 6.34954407 19.9147583 5.31216431 19.80041504 C2.13330019 19.44885894 -1.04466214 19.08979575 -4.22265625 18.73046875 C-6.39317371 18.48908414 -8.56374622 18.24819402 -10.734375 18.0078125 C-16.02278497 17.42107643 -21.31047768 16.82819409 -26.59765625 16.23046875 C-23.1911073 12.78708645 -19.7354712 9.59572083 -15.97265625 6.54296875 C-15.03164062 5.77597656 -14.090625 5.00898438 -13.12109375 4.21875 C-8.51200187 0.58712807 -5.71496208 -0.05713561 0 0 Z " fill="#F3F8FA" transform="translate(269.59765625,211.76953125)"/>
<path d="M0 0 C17.06482305 -1.05216289 30.04426722 -1.50763235 44 9 C44.96035156 9.52980469 45.92070312 10.05960938 46.91015625 10.60546875 C47.59980469 11.06566406 48.28945313 11.52585938 49 12 C49 12.99 49 13.98 49 15 C29.51899944 18.98368052 10.83672119 20.22859218 -9 20 C-7.55676531 15.26210835 -5.62773267 11.01141849 -3.375 6.625 C-2.88773437 5.66400391 -2.88773437 5.66400391 -2.390625 4.68359375 C-1.59742593 3.12052499 -0.79922969 1.55999378 0 0 Z " fill="#F1F8FA" transform="translate(311,214)"/>
<path d="M0 0 C1.04542969 -0.00515625 2.09085938 -0.0103125 3.16796875 -0.015625 C5.8125 0.25 5.8125 0.25 7.8125 2.25 C9.051172 12.02974753 7.49143977 21.77604049 1.4375 29.75 C-2.43198681 33.43522554 -5.43278599 35.03450881 -10.75 35.6875 C-14.82281251 35.16914204 -16.3502257 34.16833928 -19.1875 31.25 C-22.45273343 26.15806255 -21.63688851 20.05580964 -21.1875 14.25 C-19.50814097 8.81677961 -15.82216559 5.3902224 -11.1875 2.25 C-7.36410952 0.36064511 -4.24725684 -0.02110438 0 0 Z " fill="#F1F4F5" transform="translate(982.1875,243.75)"/>
<path d="M0 0 C1.04542969 -0.00515625 2.09085938 -0.0103125 3.16796875 -0.015625 C5.8125 0.25 5.8125 0.25 7.8125 2.25 C8.86985026 11.82107959 7.70756773 21.38990969 1.8125 29.25 C-2.69615658 33.51625568 -5.78235827 35.6313907 -12.15234375 35.52734375 C-15.45863989 35.07677364 -16.99994069 33.69491923 -19.1875 31.25 C-21.87362426 25.74984081 -22.17567778 19.70300759 -20.5 13.84765625 C-18.04270382 7.69417706 -14.93758532 4.06148189 -8.8828125 1.13671875 C-5.79249341 0.12004856 -3.24799314 -0.0161391 0 0 Z " fill="#F2F5F6" transform="translate(657.1875,243.75)"/>
<path d="M0 0 C1.30324219 -0.02126953 1.30324219 -0.02126953 2.6328125 -0.04296875 C4.875 0.1875 4.875 0.1875 6.875 2.1875 C7.91582161 11.56585052 7.81369836 20.40219146 1.875 28.1875 C-2.03800957 32.27684691 -5.20369092 34.99851878 -10.9375 35.5625 C-14.50979686 35.53002457 -15.05935394 35.23917881 -18.0625 32.875 C-22.59919793 26.96354513 -21.90116498 19.29125759 -21.125 12.1875 C-19.11684017 7.45546939 -16.3162903 4.92609998 -12 2.25 C-7.87775615 0.72656205 -4.40717611 0.03288937 0 0 Z " fill="#F4F7F8" transform="translate(1156.125,243.8125)"/>
<path d="M0 0 C3.81987934 2.71635864 5.95938092 5.70773272 7.8125 10 C8.53460293 15.23524622 7.69099072 18.58631423 4.8125 23 C1.08578845 26.77762291 -2.11193319 28.84335345 -7.5 29.25 C-12.8250112 28.88898229 -15.87891877 27.41468242 -19.5 23.5 C-22.60328085 18.90254689 -22.86010064 14.39001885 -22.1875 9 C-17.44840649 -0.13968033 -9.76677893 -3.06408751 0 0 Z " fill="#2265AF" transform="translate(375.1875,250)"/>
<path d="M0 0 C1.54300781 -0.03867188 1.54300781 -0.03867188 3.1171875 -0.078125 C7.48657798 0.39853578 10.0621613 2.1871613 13.125 5.25 C13.77748925 10.02986309 14.06696242 14.66750314 11.5625 18.875 C8.344343 20.69037062 5.80861004 21.1184425 2.125 21.25 C-1.11728809 20.01692905 -2.85637636 18.37544691 -5 15.6875 C-7.30310372 12.81757024 -8.4880124 11.43417376 -12.2578125 10.93359375 C-13.16273437 10.85238281 -14.06765625 10.77117187 -15 10.6875 C-15.91007812 10.60371094 -16.82015625 10.51992187 -17.7578125 10.43359375 C-18.80582031 10.34271484 -18.80582031 10.34271484 -19.875 10.25 C-13.90298446 3.92668943 -8.81099238 0.1318353 0 0 Z " fill="#161616" transform="translate(1464.875,178.75)"/>
<path d="M0 0 C0.70511719 0.05534912 1.41023437 0.11069824 2.13671875 0.16772461 C7.9858372 0.66822304 13.68932666 1.61496389 19.4375 2.8125 C19.4375 7.1025 19.4375 11.3925 19.4375 15.8125 C12.95009734 15.28932237 6.50306607 14.49266015 0.0625 13.5625 C-1.11481689 13.41687622 -1.11481689 13.41687622 -2.31591797 13.26831055 C-6.33969495 12.654228 -8.10438233 12.25934093 -11.1015625 9.3359375 C-12.5625 6.8125 -12.5625 6.8125 -12.5625 4.6875 C-9.69521157 -0.68866581 -5.49767656 -0.52122004 0 0 Z " fill="#107FC6" transform="translate(209.5625,248.1875)"/>
<path d="M0 0 C4.05579695 1.32434186 5.10951499 2.16914479 7.0625 6 C7.66127304 11.47877331 8.22567628 17.23400621 5.0625 22 C1.59326119 24.31282587 0.14044425 24.42478586 -3.9375 24 C-6.5308405 22.14761393 -7.68331017 19.88827948 -8.9375 17 C-9.52659226 12.72334322 -9.42542817 9.06879504 -7.625 5.125 C-6.7896875 4.073125 -6.7896875 4.073125 -5.9375 3 C-5.2878125 2.071875 -5.2878125 2.071875 -4.625 1.125 C-2.9375 0 -2.9375 0 0 0 Z " fill="#EDF5F9" transform="translate(270.9375,263)"/>
<path d="M0 0 C3 0.5 3 0.5 4.66796875 2.21875 C6.22398248 4.88359463 6.37320152 6.43690792 6.3125 9.5 C6.30863281 10.345625 6.30476563 11.19125 6.30078125 12.0625 C5.9764374 14.69094886 5.51356209 16.32517292 4 18.5 C0.375 19.25 0.375 19.25 -3 19.5 C-5.8381946 16.31641663 -6.40993914 14.23928226 -6.375 10 C-6.38273437 9.0615625 -6.39046875 8.123125 -6.3984375 7.15625 C-5.74513936 2.80092909 -4.39572254 0.73262042 0 0 Z " fill="#F0F7FA" transform="translate(374,253.5)"/>
<path d="M0 0 C4.52275595 0.41891505 9.04264763 0.86341927 13.5625 1.3125 C14.83931641 1.43044922 16.11613281 1.54839844 17.43164062 1.66992188 C23.82601297 2.31766349 29.30242069 2.94129953 35 6 C35 6.33 35 6.66 35 7 C32.69 7.33 30.38 7.66 28 8 C27.22757731 9.83700789 27.22757731 9.83700789 27 12 C28.39588754 13.64594139 28.39588754 13.64594139 30 15 C30 15.66 30 16.32 30 17 C21.00661522 16.41126827 10.98117581 15.45326476 3 11 C4.299375 11.165 5.59875 11.33 6.9375 11.5 C15.15636612 12.68955436 15.15636612 12.68955436 23 11 C22.96044102 9.07690578 22.96044102 9.07690578 22 7 C17.52521257 4.26200221 13.32779687 3.41391776 8.1875 2.9375 C5.75895934 2.70500464 3.41137569 2.40140039 1 2 C0.67 1.34 0.34 0.68 0 0 Z " fill="#1B63AE" transform="translate(171,243)"/>
<path d="M0 0 C0 0.33 0 0.66 0 1 C5.445 1.495 5.445 1.495 11 2 C11 2.33 11 2.66 11 3 C9.24236328 2.95166016 9.24236328 2.95166016 7.44921875 2.90234375 C-2.31306121 2.88050187 -8.33764373 3.55552933 -15.65234375 10.6328125 C-16.42707031 11.41398438 -17.20179688 12.19515625 -18 13 C-19.53966978 14.216955 -21.10008451 15.40851796 -22.6875 16.5625 C-23.33074219 17.03816406 -23.97398437 17.51382813 -24.63671875 18.00390625 C-25.08660156 18.33261719 -25.53648437 18.66132813 -26 19 C-26.66 18.67 -27.32 18.34 -28 18 C-8.42655041 -0.18318588 -8.42655041 -0.18318588 0 0 Z " fill="#3B7BBB" transform="translate(269,209)"/>
<path d="M0 0 C5.79879613 0.20346653 9.32779432 1.08044472 13.58984375 5.12890625 C17.34483218 10.11128702 17.45308756 16.99658981 17 23 C16 26.4375 16 26.4375 15 29 C13.59764317 26.19528635 14.05453926 23.9352807 14.1875 20.8125 C14.22733904 14.79680568 13.71583281 11.72011195 10 7 C6.90444746 4.06319375 4.02741383 2.3808276 0 1 C0 0.67 0 0.34 0 0 Z " fill="#BFE0F1" transform="translate(268,254)"/>
<path d="M0 0 C3.55260022 4.53262786 4.31843218 7.44368673 3.8125 13.3125 C2.20515334 17.49160132 0.63177559 19.94191515 -3.1875 22.3125 C-3.1875 20.9925 -3.1875 19.6725 -3.1875 18.3125 C-2.5275 18.3125 -1.8675 18.3125 -1.1875 18.3125 C-0.29640078 15.23998989 -0.02410276 12.44602607 0 9.25 C0.01417969 8.39277344 0.02835937 7.53554688 0.04296875 6.65234375 C-0.02903915 4.04051691 -0.02903915 4.04051691 -2.1875 1.3125 C-4.75032742 0.58284634 -4.75032742 0.58284634 -7.1875 0.3125 C-7.1875 -0.0175 -7.1875 -0.3475 -7.1875 -0.6875 C-2.79094828 -2.15301724 -2.79094828 -2.15301724 0 0 Z " fill="#2AB5EC" transform="translate(379.1875,253.6875)"/>
<path d="M0 0 C1.32 0.33 2.64 0.66 4 1 C2.55676531 5.73789165 0.62773267 9.98858151 -1.625 14.375 C-1.94984375 15.01566406 -2.2746875 15.65632812 -2.609375 16.31640625 C-3.40257407 17.87947501 -4.20077031 19.44000622 -5 21 C-7.31 21 -9.62 21 -12 21 C-11.38415039 20.74404053 -10.76830078 20.48808105 -10.13378906 20.22436523 C-7.70242727 18.82925318 -7.07687749 17.89292479 -5.859375 15.41015625 C-5.51132812 14.70826172 -5.16328125 14.00636719 -4.8046875 13.28320312 C-4.45664062 12.55037109 -4.10859375 11.81753906 -3.75 11.0625 C-3.20472656 9.96905273 -3.20472656 9.96905273 -2.6484375 8.85351562 C-0.54184973 4.63542066 -0.54184973 4.63542066 0 0 Z " fill="#3791CD" transform="translate(307,213)"/>
<path d="M0 0 C6.32884728 0.3651258 6.32884728 0.3651258 9.3125 3.1875 C11.04458479 6.07430798 12.00339117 8.79661446 13 12 C13.66 12.66 14.32 13.32 15 14 C14.34 14 13.68 14 13 14 C13 16.31 13 18.62 13 21 C12.34 21.33 11.68 21.66 11 22 C11.05800781 21.443125 11.11601562 20.88625 11.17578125 20.3125 C11.50093387 14.81277572 10.73385601 11.21629516 7.578125 6.6640625 C5.03373161 3.98111303 2.50006568 3.09805982 -1 2 C-0.67 1.34 -0.34 0.68 0 0 Z " fill="#CCEAF6" transform="translate(371,247)"/>
<path d="M0 0 C0.66 0.33 1.32 0.66 2 1 C-2.62 5.62 -7.24 10.24 -12 15 C-12.66 14.67 -13.32 14.34 -14 14 C-9.61932717 8.89662734 -5.32423478 4.12628195 0 0 Z " fill="#343435" transform="translate(505,169)"/>
<path d="M0 0 C0 0.33 0 0.66 0 1 C3.63 1.33 7.26 1.66 11 2 C11 2.33 11 2.66 11 3 C7.87598221 3.22537111 4.75088667 3.42738648 1.625 3.625 C0.73554688 3.68945312 -0.15390625 3.75390625 -1.0703125 3.8203125 C-1.92109375 3.871875 -2.771875 3.9234375 -3.6484375 3.9765625 C-4.82672119 4.05511475 -4.82672119 4.05511475 -6.02880859 4.13525391 C-8 4 -8 4 -10 2 C-6.5980513 -0.09350689 -3.94727588 -0.17942163 0 0 Z " fill="#5C96CA" transform="translate(269,209)"/>
<path d="M0 0 C0.66 0.33 1.32 0.66 2 1 C1.16855469 1.67482422 1.16855469 1.67482422 0.3203125 2.36328125 C-5.69648863 7.70560112 -7.41396075 12.02986621 -8 20 C-8.33 20 -8.66 20 -9 20 C-9.62744776 14.32973135 -9.68927124 10.20361372 -6.1875 5.5 C-4.20301024 3.10881233 -2.63198703 1.75465802 0 0 Z " fill="#363737" transform="translate(946,202)"/>
<path d="M0 0 C0.66 0 1.32 0 2 0 C2.33 4.29 2.66 8.58 3 13 C2.01 13.33 1.02 13.66 0 14 C0 9.38 0 4.76 0 0 Z " fill="#B6B8B9" transform="translate(744,199)"/>
<path d="M0 0 C2.65175986 3.50411124 2.89979618 5.19972834 2.3125 9.5625 C2.126875 10.47 1.94125 11.3775 1.75 12.3125 C1.42 12.3125 1.09 12.3125 0.75 12.3125 C0.09 9.0125 -0.57 5.7125 -1.25 2.3125 C-3.23 1.6525 -5.21 0.9925 -7.25 0.3125 C-7.25 -0.0175 -7.25 -0.3475 -7.25 -0.6875 C-3.95291925 -1.78652692 -2.86175329 -2.14631497 0 0 Z " fill="#42B5E7" transform="translate(379.25,253.6875)"/>
<path d="M0 0 C0.66 0.33 1.32 0.66 2 1 C1.195625 1.680625 0.39125 2.36125 -0.4375 3.0625 C-3.42288711 6.48477302 -3.73781251 8.5428126 -4 13 C-4.66 12.34 -5.32 11.68 -6 11 C-5.9375 7.625 -5.9375 7.625 -5 4 C-2.4375 1.5625 -2.4375 1.5625 0 0 Z " fill="#CCCFCF" transform="translate(1140,203)"/>
<path d="M0 0 C0.66 0.33 1.32 0.66 2 1 C-1.3 4.3 -4.6 7.6 -8 11 C-8 6.67750434 -5.85084926 5.11604454 -3 2 C-2.01 1.34 -1.02 0.68 0 0 Z " fill="#373838" transform="translate(618,244)"/>
<path d="M0 0 C0.66 0.33 1.32 0.66 2 1 C-1.3 4.3 -4.6 7.6 -8 11 C-8.66 10.67 -9.32 10.34 -10 10 C-6.92118304 6.12948725 -3.99926986 2.97088618 0 0 Z " fill="#D8DBDB" transform="translate(858,169)"/>
<path d="M0 0 C0.66 0.33 1.32 0.66 2 1 C-0.97 3.97 -3.94 6.94 -7 10 C-7 6.04435836 -5.59478606 4.89133304 -3 2 C-2.01 1.34 -1.02 0.68 0 0 Z " fill="#D7DADA" transform="translate(1144,246)"/>
<path d="M0 0 C0.66 0.66 1.32 1.32 2 2 C-0.97 4.31 -3.94 6.62 -7 9 C-7.66 8.67 -8.32 8.34 -9 8 C-6.03 5.36 -3.06 2.72 0 0 Z " fill="#578AC2" transform="translate(250,219)"/>
<path d="M0 0 C0.66 0.33 1.32 0.66 2 1 C-0.97 3.97 -3.94 6.94 -7 10 C-7.66 9.67 -8.32 9.34 -9 9 C-6.21000549 5.51250686 -3.74764169 2.49842779 0 0 Z " fill="#D8DBDC" transform="translate(532,170)"/>
<path d="M0 0 C0.66 0.33 1.32 0.66 2 1 C0.515 2.485 0.515 2.485 -1 4 C-0.34 4.66 0.32 5.32 1 6 C-1.31 6 -3.62 6 -6 6 C-4 4 -2 2 0 0 Z " fill="#343535" transform="translate(1451,183)"/>
<path d="M0 0 C0.66 0.33 1.32 0.66 2 1 C-0.31 3.31 -2.62 5.62 -5 8 C-5.66 7.67 -6.32 7.34 -7 7 C-4.78071806 4.09197539 -3.07030857 2.04687238 0 0 Z " fill="#DBDEDF" transform="translate(1405,294)"/>
<path d="M0 0 C0.66 0.33 1.32 0.66 2 1 C-0.64 3.64 -3.28 6.28 -6 9 C-6 6 -6 6 -3.5625 3.375 C-2.716875 2.59125 -1.87125 1.8075 -1 1 C-0.67 0.67 -0.34 0.34 0 0 Z " fill="#333333" transform="translate(621,202)"/>
<path d="M0 0 C0.66 0.33 1.32 0.66 2 1 C-0.31 3.31 -2.62 5.62 -5 8 C-5 5 -5 5 -2.5 2.3125 C-1.675 1.549375 -0.85 0.78625 0 0 Z " fill="#D0D3D4" transform="translate(1414,203)"/>
<path d="M0 0 C0.66 1.32 1.32 2.64 2 4 C0.35 5.32 -1.3 6.64 -3 8 C-3 6.68 -3 5.36 -3 4 C-2.34 4 -1.68 4 -1 4 C-0.67 2.68 -0.34 1.36 0 0 Z " fill="#2BAAE3" transform="translate(379,268)"/>
</svg>
